HIERARCHY
ROOT joint_0
{
	OFFSET 0.000000 0.000000 0.000000
	CHANNELS 6 Xposition Yposition Zposition Zrotation Yrotation Xrotation 
	JOINT joint_1
	{
		OFFSET 6.004005 -1.946999 100.587036
		CHANNELS 3 Zrotation Yrotation Xrotation
		JOINT joint_2
		{
			OFFSET -4.601006 -0.824997 91.925903
			CHANNELS 3 Zrotation Yrotation Xrotation
			JOINT joint_3
			{
				OFFSET -5.420998 -1.130005 91.774048
				CHANNELS 3 Zrotation Yrotation Xrotation
				JOINT joint_4
				{
					OFFSET 4.308998 -3.777992 123.473999
					CHANNELS 3 Zrotation Yrotation Xrotation
					JOINT joint_5
					{
						OFFSET 25.565002 -6.305008 79.437988
						CHANNELS 3 Zrotation Yrotation Xrotation
						End Site
						{
							OFFSET 0.000000 0.000000 0.000000
						}
					}
				}
				JOINT joint_6
				{
					OFFSET -1.750000 -28.655998 68.557983
					CHANNELS 3 Zrotation Yrotation Xrotation
					JOINT joint_7
					{
						OFFSET -17.692001 -116.544006 -17.244019
						CHANNELS 3 Zrotation Yrotation Xrotation
						JOINT joint_8
						{
							OFFSET 27.063004 -23.640991 -266.895020
							CHANNELS 3 Zrotation Yrotation Xrotation
							JOINT joint_9
							{
								OFFSET 40.722000 -15.761017 -232.488953
								CHANNELS 3 Zrotation Yrotation Xrotation
								End Site
								{
									OFFSET 0.000000 0.000000 0.000000
								}
							}
						}
					}
				}
				JOINT joint_10
				{
					OFFSET 6.593002 24.457001 69.892944
					CHANNELS 3 Zrotation Yrotation Xrotation
					JOINT joint_11
					{
						OFFSET 24.311996 114.920002 -19.872925
						CHANNELS 3 Zrotation Yrotation Xrotation
						JOINT joint_12
						{
							OFFSET 21.081001 15.319000 -268.037964
							CHANNELS 3 Zrotation Yrotation Xrotation
							JOINT joint_13
							{
								OFFSET 27.794006 -8.947001 -234.744080
								CHANNELS 3 Zrotation Yrotation Xrotation
								End Site
								{
									OFFSET 0.000000 0.000000 0.000000
								}
							}
						}
					}
				}
			}
		}
	}
	JOINT joint_14
	{
		OFFSET -6.627998 -80.520004 -98.790039
		CHANNELS 3 Zrotation Yrotation Xrotation
		JOINT joint_15
		{
			OFFSET -43.638000 -13.751999 -502.538971
			CHANNELS 3 Zrotation Yrotation Xrotation
			JOINT joint_16
			{
				OFFSET -39.532999 -9.912994 -398.071007
				CHANNELS 3 Zrotation Yrotation Xrotation
				JOINT joint_17
				{
					OFFSET 174.940004 -34.660995 -75.688002
					CHANNELS 3 Zrotation Yrotation Xrotation
					End Site
					{
						OFFSET 0.000000 0.000000 0.000000
					}
				}
			}
		}
	}
	JOINT joint_18
	{
		OFFSET 12.591003 79.842003 -98.765015
		CHANNELS 3 Zrotation Yrotation Xrotation
		JOINT joint_19
		{
			OFFSET -39.080002 -1.297001 -503.101013
			CHANNELS 3 Zrotation Yrotation Xrotation
			JOINT joint_20
			{
				OFFSET -51.570000 -0.514000 -396.815987
				CHANNELS 3 Zrotation Yrotation Xrotation
				JOINT joint_21
				{
					OFFSET 178.987999 -11.521999 -73.244003
					CHANNELS 3 Zrotation Yrotation Xrotation
					End Site
					{
						OFFSET 0.000000 0.000000 0.000000
					}
				}
			}
		}
	}
}
MOTION
Frames: 7
Frame Time: 0.016667
-1919.003662 994.825500 1094.677979 -1.712655 -1.300326 -0.699932 0.988300 3.246292 1.098008 0.954030 -0.554453 -0.189303 0.995865 0.652120 0.163103 0.262720 -1.973243 -1.303316 0.000000 0.000000 0.000000 0.874924 0.155140 1.178699 0.107106 0.084919 2.413035 -0.827584 4.617839 -2.837234 0.000000 0.000000 0.000000 2.404543 -0.171409 0.783680 -0.038623 0.518767 -4.469528 0.863000 -0.604106 7.738693 0.000000 0.000000 0.000000 1.088347 -2.393287 -1.420166 0.666618 5.208872 0.651333 0.878855 -1.467077 0.087757 0.000000 0.000000 0.000000 -1.637881 -3.380614 5.611038 -1.293264 4.812097 0.391575 -1.206284 -0.646176 -0.530283 0.000000 0.000000 0.000000 
-1918.935059 994.860840 1094.667969 -1.730021 -1.306402 -0.701583 0.986906 3.241485 1.096489 0.952643 -0.551720 -0.187643 0.994190 0.649938 0.161634 0.260896 -1.963187 -1.295114 0.000000 0.000000 0.000000 0.880328 0.148093 1.171405 0.107897 0.077375 2.413166 -0.826153 4.605940 -2.835206 0.000000 0.000000 0.000000 2.389686 -0.173762 0.796184 -0.038354 0.519259 -4.458078 0.862669 -0.588994 7.733436 0.000000 0.000000 0.000000 1.095849 -2.391001 -1.422282 0.673346 5.221953 0.654859 0.886090 -1.470977 0.090095 0.000000 0.000000 0.000000 -1.631381 -3.373958 5.608151 -1.287416 4.826146 0.397225 -1.200130 -0.653875 -0.528279 0.000000 0.000000 0.000000 
-1918.860352 994.896729 1094.657959 -1.748489 -1.310709 -0.704727 0.986373 3.237394 1.098292 0.951858 -0.551968 -0.188518 0.993487 0.648937 0.162281 0.258102 -1.953174 -1.283903 0.000000 0.000000 0.000000 0.883498 0.142381 1.163163 0.108671 0.071040 2.410989 -0.823611 4.590520 -2.828361 0.000000 0.000000 0.000000 2.371936 -0.175669 0.811244 -0.037905 0.522817 -4.453945 0.862766 -0.579916 7.730215 0.000000 0.000000 0.000000 1.103134 -2.389762 -1.422270 0.680133 5.233544 0.657389 0.893218 -1.474318 0.092499 0.000000 0.000000 0.000000 -1.624435 -3.370254 5.606890 -1.281088 4.843911 0.402739 -1.193556 -0.664424 -0.526285 0.000000 0.000000 0.000000 
-1918.778564 994.934082 1094.645020 -1.767582 -1.314249 -0.709583 0.986172 3.232180 1.102424 0.951345 -0.550547 -0.189485 0.993036 0.647445 0.163116 0.254188 -1.944577 -1.269563 0.000000 0.000000 0.000000 0.884143 0.137135 1.153183 0.109660 0.064571 2.408337 -0.820261 4.572781 -2.817994 0.000000 0.000000 0.000000 2.353100 -0.177837 0.829306 -0.037498 0.528265 -4.456104 0.863175 -0.574402 7.728842 0.000000 0.000000 0.000000 1.110283 -2.389125 -1.419890 0.687058 5.245312 0.658794 0.900419 -1.478868 0.094695 0.000000 0.000000 0.000000 -1.617164 -3.368821 5.607072 -1.274407 4.866367 0.408758 -1.186603 -0.679074 -0.524398 0.000000 0.000000 0.000000 
-1918.679565 994.972290 1094.633057 -1.786475 -1.317771 -0.714462 0.986215 3.223696 1.107725 0.950921 -0.548833 -0.192390 0.992832 0.645313 0.164752 0.249974 -1.934656 -1.253980 0.000000 0.000000 0.000000 0.887548 0.134676 1.142813 0.110562 0.060840 2.408432 -0.817607 4.558822 -2.809791 0.000000 0.000000 0.000000 2.332088 -0.179034 0.848296 -0.037036 0.535138 -4.457656 0.863352 -0.568389 7.725062 0.000000 0.000000 0.000000 1.117100 -2.385104 -1.418085 0.693795 5.252002 0.661035 0.907349 -1.482092 0.097038 0.000000 0.000000 0.000000 -1.609783 -3.366165 5.607136 -1.267637 4.888230 0.414862 -1.179547 -0.693685 -0.522468 0.000000 0.000000 0.000000 
-1918.556885 995.006836 1094.620972 -1.804604 -1.322761 -0.719271 0.986613 3.210930 1.111271 0.951063 -0.545894 -0.192950 0.992890 0.641245 0.164637 0.246156 -1.923545 -1.239385 0.000000 0.000000 0.000000 0.896758 0.136789 1.131702 0.111452 0.061374 2.415549 -0.816578 4.552677 -2.807107 0.000000 0.000000 0.000000 2.307872 -0.178937 0.868493 -0.036509 0.543199 -4.454819 0.862831 -0.559646 7.714900 0.000000 0.000000 0.000000 1.123573 -2.372872 -1.417340 0.700521 5.247899 0.665164 0.914124 -1.483225 0.099731 0.000000 0.000000 0.000000 -1.602656 -3.359227 5.607784 -1.260919 4.907060 0.419867 -1.172655 -0.707289 -0.520543 0.000000 0.000000 0.000000 
-1918.412354 995.038818 1094.609009 -1.821993 -1.327750 -0.724192 0.987377 3.192599 1.114152 0.951581 -0.542793 -0.193818 0.993402 0.638424 0.165285 0.242151 -1.912265 -1.224205 0.000000 0.000000 0.000000 0.909800 0.142185 1.118678 0.112470 0.064604 2.428244 -0.816619 4.552398 -2.807742 0.000000 0.000000 0.000000 2.279452 -0.178104 0.889452 -0.035905 0.552310 -4.449220 0.861766 -0.549503 7.699411 0.000000 0.000000 0.000000 1.129710 -2.355121 -1.417046 0.707235 5.234972 0.670206 0.920679 -1.481974 0.102806 0.000000 0.000000 0.000000 -1.595845 -3.350600 5.608791 -1.254446 4.924782 0.424482 -1.166040 -0.720742 -0.518722 0.000000 0.000000 0.000000 
